<svg height="558" width="720" xmlns="http://www.w3.org/2000/svg">
<rect height="558" fill="#555" width="720"></rect>
<text fill="#7f7" font-family="Courier New" font-size="12" xml:space="preserve">
<tspan x="10" y="26">8 megabytes installed</tspan>
<tspan x="10" y="42"></tspan>
<tspan x="10" y="58">node_modules</tspan>
<tspan x="10" y="74">├── UNMET PEER DEPENDENCY react@^0.14.8 || ^15.0.0</tspan>
<tspan x="10" y="90">└─┬ react-file-uploader@0.3.3 </tspan>
<tspan x="10" y="106">  ├── classnames@2.2.5 </tspan>
<tspan x="10" y="122">  ├─┬ debug@2.6.3 </tspan>
<tspan x="10" y="138">  │ └── ms@0.7.2 </tspan>
<tspan x="10" y="154">  ├─┬ invariant@2.2.2 </tspan>
<tspan x="10" y="170">  │ └─┬ loose-envify@1.3.1 </tspan>
<tspan x="10" y="186">  │   └── js-tokens@3.0.1 </tspan>
<tspan x="10" y="202">  ├── lodash@4.17.4 </tspan>
<tspan x="10" y="218">  ├── shortid@2.2.8 </tspan>
<tspan x="10" y="234">  └─┬ superagent@1.8.5 </tspan>
<tspan x="10" y="250">    ├── component-emitter@1.2.1 </tspan>
<tspan x="10" y="266">    ├── cookiejar@2.0.6 </tspan>
<tspan x="10" y="282">    ├── extend@3.0.0 </tspan>
<tspan x="10" y="298">    ├─┬ form-data@1.0.0-rc3 </tspan>
<tspan x="10" y="314">    │ ├── async@1.5.2 </tspan>
<tspan x="10" y="330">    │ ├─┬ combined-stream@1.0.5 </tspan>
<tspan x="10" y="346">    │ │ └── delayed-stream@1.0.0 </tspan>
<tspan x="10" y="362">    │ └─┬ mime-types@2.1.15 </tspan>
<tspan x="10" y="378">    │   └── mime-db@1.27.0 </tspan>
<tspan x="10" y="394">    ├── formidable@1.0.17 </tspan>
<tspan x="10" y="410">    ├── methods@1.1.2 </tspan>
<tspan x="10" y="426">    ├── mime@1.3.4 </tspan>
<tspan x="10" y="442">    ├── qs@2.3.3 </tspan>
<tspan x="10" y="458">    ├─┬ readable-stream@1.0.27-1 </tspan>
<tspan x="10" y="474">    │ ├── core-util-is@1.0.2 </tspan>
<tspan x="10" y="490">    │ ├── inherits@2.0.3 </tspan>
<tspan x="10" y="506">    │ ├── isarray@0.0.1 </tspan>
<tspan x="10" y="522">    │ └── string_decoder@0.10.31 </tspan>
<tspan x="10" y="538">    └── reduce-component@1.0.1</tspan>
</text>
</svg>
